<svg xmlns="http://www.w3.org/2000/svg" viewBox="0 0 120 120" width="120" height="120">
  <title>Sonance</title>
  <g fill="#6366f1">
    <rect x="14" y="56" width="3" height="8" rx="1"/>
    <rect x="19" y="51" width="3" height="18" rx="1"/>
    <rect x="24" y="44" width="3" height="32" rx="1"/>
    <rect x="29" y="36" width="3" height="48" rx="1"/>
    <rect x="34" y="28" width="3" height="64" rx="1"/>
    <rect x="39" y="20" width="3" height="80" rx="1"/>
    <rect x="44" y="14" width="3" height="92" rx="1"/>
    <rect x="49" y="22" width="3" height="76" rx="1"/>
    <rect x="54" y="30" width="3" height="60" rx="1"/>
    <rect x="59" y="10" width="3" height="100" rx="1"/>
    <rect x="64" y="30" width="3" height="60" rx="1"/>
    <rect x="69" y="22" width="3" height="76" rx="1"/>
    <rect x="74" y="14" width="3" height="92" rx="1"/>
    <rect x="79" y="20" width="3" height="80" rx="1"/>
    <rect x="84" y="28" width="3" height="64" rx="1"/>
    <rect x="89" y="36" width="3" height="48" rx="1"/>
    <rect x="94" y="44" width="3" height="32" rx="1"/>
    <rect x="99" y="51" width="3" height="18" rx="1"/>
    <rect x="104" y="56" width="3" height="8" rx="1"/>
  </g>
</svg>
